<?xml version="1.0" encoding="UTF-8" standalone="no"?>
<!-- Created with Inkscape (http://www.inkscape.org/) -->

<svg
   xmlns:dc="http://purl.org/dc/elements/1.1/"
   xmlns:cc="http://creativecommons.org/ns#"
   xmlns:rdf="http://www.w3.org/1999/02/22-rdf-syntax-ns#"
   xmlns:svg="http://www.w3.org/2000/svg"
   xmlns="http://www.w3.org/2000/svg"
   xmlns:sodipodi="http://sodipodi.sourceforge.net/DTD/sodipodi-0.dtd"
   xmlns:inkscape="http://www.inkscape.org/namespaces/inkscape"
   version="1.1"
   id="svg2"
   xml:space="preserve"
   width="235.64532"
   height="303.08267"
   viewBox="0 0 235.64532 303.08267"
   sodipodi:docname="deploy-pod.svg"
   inkscape:version="0.92.2 5c3e80d, 2017-08-06"><metadata
     id="metadata8"><rdf:RDF><cc:Work
         rdf:about=""><dc:format>image/svg+xml</dc:format><dc:type
           rdf:resource="http://purl.org/dc/dcmitype/StillImage" /><dc:title></dc:title><dc:subject><rdf:Bag><rdf:li>pod</rdf:li><rdf:li>container</rdf:li></rdf:Bag></dc:subject></cc:Work></rdf:RDF></metadata><defs
     id="defs6"><clipPath
       clipPathUnits="userSpaceOnUse"
       id="clipPath20"><path
         d="M 0,227.312 H 176.734 V 0 H 0 Z"
         id="path18"
         inkscape:connector-curvature="0" /></clipPath></defs><sodipodi:namedview
     pagecolor="#ffffff"
     bordercolor="#666666"
     borderopacity="1"
     objecttolerance="10"
     gridtolerance="10"
     guidetolerance="10"
     inkscape:pageopacity="0"
     inkscape:pageshadow="2"
     inkscape:window-width="923"
     inkscape:window-height="738"
     id="namedview4"
     showgrid="false"
     inkscape:zoom="0.77866543"
     inkscape:cx="117.82266"
     inkscape:cy="151.54134"
     inkscape:window-x="0"
     inkscape:window-y="0"
     inkscape:window-maximized="0"
     inkscape:current-layer="g10" /><g
     id="g10"
     inkscape:groupmode="layer"
     inkscape:label="deploy-pod"
     transform="matrix(1.3333333,0,0,-1.3333333,0,303.08267)"><path
       d="M 0,0 H 176.734 V 227.312 H 0 Z"
       style="fill:#e6e6e6;fill-opacity:1;fill-rule:nonzero;stroke:none"
       id="path12"
       inkscape:connector-curvature="0" /><g
       id="g14"><g
         id="g16"
         clip-path="url(#clipPath20)"><g
           id="g22"
           transform="translate(11.9154,213.9494)"><path
             d="m 0,0 h -2.577 v -2.881 h 2.609 c 1.041,0 1.601,0.481 1.601,1.457 C 1.633,-0.448 0.993,0 0,0 M -0.112,-5.058 H -2.577 V -9.027 H -4.818 V 2.177 H 0.08 c 2.113,0 3.858,-1.168 3.858,-3.553 0,-2.594 -1.729,-3.682 -4.05,-3.682"
             style="fill:#4c4c4c;fill-opacity:1;fill-rule:nonzero;stroke:none"
             id="path24"
             inkscape:connector-curvature="0" /></g><g
           id="g26"
           transform="translate(22.2513,214.0773)"><path
             d="m 0,0 c -1.809,0 -2.561,-1.552 -2.561,-3.553 0,-2.001 0.752,-3.553 2.561,-3.553 1.809,0 2.561,1.552 2.561,3.553 C 2.561,-1.552 1.809,0 0,0 m 0,-9.331 c -3.057,0 -4.866,2.369 -4.866,5.778 0,3.409 1.809,5.779 4.866,5.779 3.057,0 4.866,-2.37 4.866,-5.779 0,-3.409 -1.809,-5.778 -4.866,-5.778"
             style="fill:#4c4c4c;fill-opacity:1;fill-rule:nonzero;stroke:none"
             id="path28"
             inkscape:connector-curvature="0" /></g><g
           id="g30"
           transform="translate(32.827,213.9494)"><path
             d="m 0,0 h -1.185 v -6.851 h 1.105 c 2.352,0 3.425,1.377 3.425,3.426 C 3.345,-1.136 2.369,0 0,0 M -0.08,-9.027 H -3.426 V 2.177 H 0.08 c 3.201,0 5.57,-1.504 5.57,-5.602 0,-3.937 -2.849,-5.602 -5.73,-5.602"
             style="fill:#4c4c4c;fill-opacity:1;fill-rule:nonzero;stroke:none"
             id="path32"
             inkscape:connector-curvature="0" /></g><path
           d="M 8.325,191.309 H 168.409 V 10.385 H 8.325 Z"
           style="fill:#ffffff;fill-opacity:1;fill-rule:nonzero;stroke:none"
           id="path34"
           inkscape:connector-curvature="0" /><g
           id="g36"
           transform="translate(20.325,190.5587)"><path
             d="m 0,0 h -4 c -0.414,0 -0.75,0.336 -0.75,0.75 0,0.414 0.336,0.75 0.75,0.75 H 0 C 0.414,1.5 0.75,1.164 0.75,0.75 0.75,0.336 0.414,0 0,0 M 8,0 H 4 C 3.586,0 3.25,0.336 3.25,0.75 3.25,1.164 3.586,1.5 4,1.5 H 8 C 8.414,1.5 8.75,1.164 8.75,0.75 8.75,0.336 8.414,0 8,0 m 8,0 h -4 c -0.414,0 -0.75,0.336 -0.75,0.75 0,0.414 0.336,0.75 0.75,0.75 h 4 c 0.414,0 0.75,-0.336 0.75,-0.75 C 16.75,0.336 16.414,0 16,0 m 8,0 h -4 c -0.414,0 -0.75,0.336 -0.75,0.75 0,0.414 0.336,0.75 0.75,0.75 h 4 c 0.414,0 0.75,-0.336 0.75,-0.75 C 24.75,0.336 24.414,0 24,0 m 8,0 h -4 c -0.414,0 -0.75,0.336 -0.75,0.75 0,0.414 0.336,0.75 0.75,0.75 h 4 c 0.414,0 0.75,-0.336 0.75,-0.75 C 32.75,0.336 32.414,0 32,0 m 8,0 h -4 c -0.414,0 -0.75,0.336 -0.75,0.75 0,0.414 0.336,0.75 0.75,0.75 h 4 c 0.414,0 0.75,-0.336 0.75,-0.75 C 40.75,0.336 40.414,0 40,0 m 8,0 h -4 c -0.414,0 -0.75,0.336 -0.75,0.75 0,0.414 0.336,0.75 0.75,0.75 h 4 c 0.414,0 0.75,-0.336 0.75,-0.75 C 48.75,0.336 48.414,0 48,0 m 8,0 h -4 c -0.414,0 -0.75,0.336 -0.75,0.75 0,0.414 0.336,0.75 0.75,0.75 h 4 c 0.414,0 0.75,-0.336 0.75,-0.75 C 56.75,0.336 56.414,0 56,0 m 8,0 h -4 c -0.414,0 -0.75,0.336 -0.75,0.75 0,0.414 0.336,0.75 0.75,0.75 h 4 c 0.414,0 0.75,-0.336 0.75,-0.75 C 64.75,0.336 64.414,0 64,0 m 8,0 h -4 c -0.414,0 -0.75,0.336 -0.75,0.75 0,0.414 0.336,0.75 0.75,0.75 h 4 c 0.414,0 0.75,-0.336 0.75,-0.75 C 72.75,0.336 72.414,0 72,0 m 8,0 h -4 c -0.414,0 -0.75,0.336 -0.75,0.75 0,0.414 0.336,0.75 0.75,0.75 h 4 c 0.414,0 0.75,-0.336 0.75,-0.75 C 80.75,0.336 80.414,0 80,0 m 8,0 h -4 c -0.414,0 -0.75,0.336 -0.75,0.75 0,0.414 0.336,0.75 0.75,0.75 h 4 c 0.414,0 0.75,-0.336 0.75,-0.75 C 88.75,0.336 88.414,0 88,0 m 8,0 h -4 c -0.414,0 -0.75,0.336 -0.75,0.75 0,0.414 0.336,0.75 0.75,0.75 h 4 c 0.414,0 0.75,-0.336 0.75,-0.75 C 96.75,0.336 96.414,0 96,0 m 8,0 h -4 c -0.414,0 -0.75,0.336 -0.75,0.75 0,0.414 0.336,0.75 0.75,0.75 h 4 c 0.414,0 0.75,-0.336 0.75,-0.75 C 104.75,0.336 104.414,0 104,0 m 8,0 h -4 c -0.414,0 -0.75,0.336 -0.75,0.75 0,0.414 0.336,0.75 0.75,0.75 h 4 c 0.414,0 0.75,-0.336 0.75,-0.75 C 112.75,0.336 112.414,0 112,0 m 8,0 h -4 c -0.414,0 -0.75,0.336 -0.75,0.75 0,0.414 0.336,0.75 0.75,0.75 h 4 c 0.414,0 0.75,-0.336 0.75,-0.75 C 120.75,0.336 120.414,0 120,0 m 8,0 h -4 c -0.414,0 -0.75,0.336 -0.75,0.75 0,0.414 0.336,0.75 0.75,0.75 h 4 c 0.414,0 0.75,-0.336 0.75,-0.75 C 128.75,0.336 128.414,0 128,0 m 8,0 h -4 c -0.414,0 -0.75,0.336 -0.75,0.75 0,0.414 0.336,0.75 0.75,0.75 h 4 c 0.414,0 0.75,-0.336 0.75,-0.75 C 136.75,0.336 136.414,0 136,0 m 8,0 h -4 c -0.414,0 -0.75,0.336 -0.75,0.75 0,0.414 0.336,0.75 0.75,0.75 h 4 c 0.414,0 0.75,-0.336 0.75,-0.75 C 144.75,0.336 144.414,0 144,0 M -12,-2.016 c -0.414,0 -0.75,0.336 -0.75,0.75 V 0.75 c 0,0.414 0.336,0.75 0.75,0.75 h 4 c 0.414,0 0.75,-0.336 0.75,-0.75 C -7.25,0.336 -7.586,0 -8,0 h -3.25 v -1.266 c 0,-0.414 -0.336,-0.75 -0.75,-0.75 m 160.084,-1.9 c -0.414,0 -0.75,0.336 -0.75,0.75 v 3.681 c -0.027,0.074 -0.042,0.153 -0.042,0.235 0,0.414 0.294,0.75 0.708,0.75 h 0.084 c 0.414,0 0.75,-0.336 0.75,-0.75 v -3.916 c 0,-0.414 -0.336,-0.75 -0.75,-0.75 M -12,-10.016 c -0.414,0 -0.75,0.336 -0.75,0.75 v 4 c 0,0.414 0.336,0.75 0.75,0.75 0.414,0 0.75,-0.336 0.75,-0.75 v -4 c 0,-0.414 -0.336,-0.75 -0.75,-0.75 m 160.084,-1.9 c -0.414,0 -0.75,0.336 -0.75,0.75 v 4 c 0,0.414 0.336,0.75 0.75,0.75 0.414,0 0.75,-0.336 0.75,-0.75 v -4 c 0,-0.414 -0.336,-0.75 -0.75,-0.75 M -12,-18.016 c -0.414,0 -0.75,0.336 -0.75,0.75 v 4 c 0,0.414 0.336,0.75 0.75,0.75 0.414,0 0.75,-0.336 0.75,-0.75 v -4 c 0,-0.414 -0.336,-0.75 -0.75,-0.75 m 160.084,-1.9 c -0.414,0 -0.75,0.336 -0.75,0.75 v 4 c 0,0.414 0.336,0.75 0.75,0.75 0.414,0 0.75,-0.336 0.75,-0.75 v -4 c 0,-0.414 -0.336,-0.75 -0.75,-0.75 M -12,-26.016 c -0.414,0 -0.75,0.336 -0.75,0.75 v 4 c 0,0.414 0.336,0.75 0.75,0.75 0.414,0 0.75,-0.336 0.75,-0.75 v -4 c 0,-0.414 -0.336,-0.75 -0.75,-0.75 m 160.084,-1.9 c -0.414,0 -0.75,0.336 -0.75,0.75 v 4 c 0,0.414 0.336,0.75 0.75,0.75 0.414,0 0.75,-0.336 0.75,-0.75 v -4 c 0,-0.414 -0.336,-0.75 -0.75,-0.75 M -12,-34.016 c -0.414,0 -0.75,0.336 -0.75,0.75 v 4 c 0,0.414 0.336,0.75 0.75,0.75 0.414,0 0.75,-0.336 0.75,-0.75 v -4 c 0,-0.414 -0.336,-0.75 -0.75,-0.75 m 160.084,-1.9 c -0.414,0 -0.75,0.336 -0.75,0.75 v 4 c 0,0.414 0.336,0.75 0.75,0.75 0.414,0 0.75,-0.336 0.75,-0.75 v -4 c 0,-0.414 -0.336,-0.75 -0.75,-0.75 M -12,-42.016 c -0.414,0 -0.75,0.336 -0.75,0.75 v 4 c 0,0.414 0.336,0.75 0.75,0.75 0.414,0 0.75,-0.336 0.75,-0.75 v -4 c 0,-0.414 -0.336,-0.75 -0.75,-0.75 m 160.084,-1.9 c -0.414,0 -0.75,0.336 -0.75,0.75 v 4 c 0,0.414 0.336,0.75 0.75,0.75 0.414,0 0.75,-0.336 0.75,-0.75 v -4 c 0,-0.414 -0.336,-0.75 -0.75,-0.75 M -12,-50.016 c -0.414,0 -0.75,0.336 -0.75,0.75 v 4 c 0,0.414 0.336,0.75 0.75,0.75 0.414,0 0.75,-0.336 0.75,-0.75 v -4 c 0,-0.414 -0.336,-0.75 -0.75,-0.75 m 160.084,-1.9 c -0.414,0 -0.75,0.336 -0.75,0.75 v 4 c 0,0.414 0.336,0.75 0.75,0.75 0.414,0 0.75,-0.336 0.75,-0.75 v -4 c 0,-0.414 -0.336,-0.75 -0.75,-0.75 M -12,-58.016 c -0.414,0 -0.75,0.336 -0.75,0.75 v 4 c 0,0.414 0.336,0.75 0.75,0.75 0.414,0 0.75,-0.336 0.75,-0.75 v -4 c 0,-0.414 -0.336,-0.75 -0.75,-0.75 m 160.084,-1.9 c -0.414,0 -0.75,0.336 -0.75,0.75 v 4 c 0,0.414 0.336,0.75 0.75,0.75 0.414,0 0.75,-0.336 0.75,-0.75 v -4 c 0,-0.414 -0.336,-0.75 -0.75,-0.75 M -12,-66.016 c -0.414,0 -0.75,0.336 -0.75,0.75 v 4 c 0,0.414 0.336,0.75 0.75,0.75 0.414,0 0.75,-0.336 0.75,-0.75 v -4 c 0,-0.414 -0.336,-0.75 -0.75,-0.75 m 160.084,-1.9 c -0.414,0 -0.75,0.336 -0.75,0.75 v 4 c 0,0.414 0.336,0.75 0.75,0.75 0.414,0 0.75,-0.336 0.75,-0.75 v -4 c 0,-0.414 -0.336,-0.75 -0.75,-0.75 M -12,-74.016 c -0.414,0 -0.75,0.336 -0.75,0.75 v 4 c 0,0.414 0.336,0.75 0.75,0.75 0.414,0 0.75,-0.336 0.75,-0.75 v -4 c 0,-0.414 -0.336,-0.75 -0.75,-0.75 m 160.084,-1.9 c -0.414,0 -0.75,0.336 -0.75,0.75 v 4 c 0,0.414 0.336,0.75 0.75,0.75 0.414,0 0.75,-0.336 0.75,-0.75 v -4 c 0,-0.414 -0.336,-0.75 -0.75,-0.75 M -12,-82.016 c -0.414,0 -0.75,0.336 -0.75,0.75 v 4 c 0,0.414 0.336,0.75 0.75,0.75 0.414,0 0.75,-0.336 0.75,-0.75 v -4 c 0,-0.414 -0.336,-0.75 -0.75,-0.75 m 160.084,-1.9 c -0.414,0 -0.75,0.336 -0.75,0.75 v 4 c 0,0.414 0.336,0.75 0.75,0.75 0.414,0 0.75,-0.336 0.75,-0.75 v -4 c 0,-0.414 -0.336,-0.75 -0.75,-0.75 M -12,-90.016 c -0.414,0 -0.75,0.336 -0.75,0.75 v 4 c 0,0.414 0.336,0.75 0.75,0.75 0.414,0 0.75,-0.336 0.75,-0.75 v -4 c 0,-0.414 -0.336,-0.75 -0.75,-0.75 m 160.084,-1.9 c -0.414,0 -0.75,0.336 -0.75,0.75 v 4 c 0,0.414 0.336,0.75 0.75,0.75 0.414,0 0.75,-0.336 0.75,-0.75 v -4 c 0,-0.414 -0.336,-0.75 -0.75,-0.75 M -12,-98.016 c -0.414,0 -0.75,0.336 -0.75,0.75 v 4 c 0,0.414 0.336,0.75 0.75,0.75 0.414,0 0.75,-0.336 0.75,-0.75 v -4 c 0,-0.414 -0.336,-0.75 -0.75,-0.75 m 160.084,-1.9 c -0.414,0 -0.75,0.336 -0.75,0.75 v 4 c 0,0.414 0.336,0.75 0.75,0.75 0.414,0 0.75,-0.336 0.75,-0.75 v -4 c 0,-0.414 -0.336,-0.75 -0.75,-0.75 M -12,-106.016 c -0.414,0 -0.75,0.336 -0.75,0.75 v 4 c 0,0.414 0.336,0.75 0.75,0.75 0.414,0 0.75,-0.336 0.75,-0.75 v -4 c 0,-0.414 -0.336,-0.75 -0.75,-0.75 m 160.084,-1.9 c -0.414,0 -0.75,0.336 -0.75,0.75 v 4 c 0,0.414 0.336,0.75 0.75,0.75 0.414,0 0.75,-0.336 0.75,-0.75 v -4 c 0,-0.414 -0.336,-0.75 -0.75,-0.75 M -12,-114.016 c -0.414,0 -0.75,0.336 -0.75,0.75 v 4 c 0,0.414 0.336,0.75 0.75,0.75 0.414,0 0.75,-0.336 0.75,-0.75 v -4 c 0,-0.414 -0.336,-0.75 -0.75,-0.75 m 160.084,-1.9 c -0.414,0 -0.75,0.336 -0.75,0.75 v 4 c 0,0.414 0.336,0.75 0.75,0.75 0.414,0 0.75,-0.336 0.75,-0.75 v -4 c 0,-0.414 -0.336,-0.75 -0.75,-0.75 M -12,-122.016 c -0.414,0 -0.75,0.336 -0.75,0.75 v 4 c 0,0.414 0.336,0.75 0.75,0.75 0.414,0 0.75,-0.336 0.75,-0.75 v -4 c 0,-0.414 -0.336,-0.75 -0.75,-0.75 m 160.084,-1.9 c -0.414,0 -0.75,0.336 -0.75,0.75 v 4 c 0,0.414 0.336,0.75 0.75,0.75 0.414,0 0.75,-0.336 0.75,-0.75 v -4 c 0,-0.414 -0.336,-0.75 -0.75,-0.75 M -12,-130.016 c -0.414,0 -0.75,0.336 -0.75,0.75 v 4 c 0,0.414 0.336,0.75 0.75,0.75 0.414,0 0.75,-0.336 0.75,-0.75 v -4 c 0,-0.414 -0.336,-0.75 -0.75,-0.75 m 160.084,-1.9 c -0.414,0 -0.75,0.336 -0.75,0.75 v 4 c 0,0.414 0.336,0.75 0.75,0.75 0.414,0 0.75,-0.336 0.75,-0.75 v -4 c 0,-0.414 -0.336,-0.75 -0.75,-0.75 M -12,-138.016 c -0.414,0 -0.75,0.336 -0.75,0.75 v 4 c 0,0.414 0.336,0.75 0.75,0.75 0.414,0 0.75,-0.336 0.75,-0.75 v -4 c 0,-0.414 -0.336,-0.75 -0.75,-0.75 m 160.084,-1.9 c -0.414,0 -0.75,0.336 -0.75,0.75 v 4 c 0,0.414 0.336,0.75 0.75,0.75 0.414,0 0.75,-0.336 0.75,-0.75 v -4 c 0,-0.414 -0.336,-0.75 -0.75,-0.75 M -12,-146.016 c -0.414,0 -0.75,0.336 -0.75,0.75 v 4 c 0,0.414 0.336,0.75 0.75,0.75 0.414,0 0.75,-0.336 0.75,-0.75 v -4 c 0,-0.414 -0.336,-0.75 -0.75,-0.75 m 160.084,-1.9 c -0.414,0 -0.75,0.336 -0.75,0.75 v 4 c 0,0.414 0.336,0.75 0.75,0.75 0.414,0 0.75,-0.336 0.75,-0.75 v -4 c 0,-0.414 -0.336,-0.75 -0.75,-0.75 M -12,-154.016 c -0.414,0 -0.75,0.336 -0.75,0.75 v 4 c 0,0.414 0.336,0.75 0.75,0.75 0.414,0 0.75,-0.336 0.75,-0.75 v -4 c 0,-0.414 -0.336,-0.75 -0.75,-0.75 m 160.084,-1.9 c -0.414,0 -0.75,0.336 -0.75,0.75 v 4 c 0,0.414 0.336,0.75 0.75,0.75 0.414,0 0.75,-0.336 0.75,-0.75 v -4 c 0,-0.414 -0.336,-0.75 -0.75,-0.75 M -12,-162.016 c -0.414,0 -0.75,0.336 -0.75,0.75 v 4 c 0,0.414 0.336,0.75 0.75,0.75 0.414,0 0.75,-0.336 0.75,-0.75 v -4 c 0,-0.414 -0.336,-0.75 -0.75,-0.75 m 160.084,-1.9 c -0.414,0 -0.75,0.336 -0.75,0.75 v 4 c 0,0.414 0.336,0.75 0.75,0.75 0.414,0 0.75,-0.336 0.75,-0.75 v -4 c 0,-0.414 -0.336,-0.75 -0.75,-0.75 M -12,-170.016 c -0.414,0 -0.75,0.336 -0.75,0.75 v 4 c 0,0.414 0.336,0.75 0.75,0.75 0.414,0 0.75,-0.336 0.75,-0.75 v -4 c 0,-0.414 -0.336,-0.75 -0.75,-0.75 m 160.084,-1.9 c -0.414,0 -0.75,0.336 -0.75,0.75 v 4 c 0,0.414 0.336,0.75 0.75,0.75 0.414,0 0.75,-0.336 0.75,-0.75 v -4 c 0,-0.414 -0.336,-0.75 -0.75,-0.75 M -12,-178.016 c -0.414,0 -0.75,0.336 -0.75,0.75 v 4 c 0,0.414 0.336,0.75 0.75,0.75 0.414,0 0.75,-0.336 0.75,-0.75 v -4 c 0,-0.414 -0.336,-0.75 -0.75,-0.75 m 160.084,-1.9 c -0.414,0 -0.75,0.336 -0.75,0.75 v 4 c 0,0.414 0.336,0.75 0.75,0.75 0.414,0 0.75,-0.336 0.75,-0.75 v -4 c 0,-0.414 -0.336,-0.75 -0.75,-0.75 m -154.992,-1.008 h -4 c -0.414,0 -0.75,0.336 -0.75,0.75 0,0.414 0.336,0.75 0.75,0.75 h 4 c 0.414,0 0.75,-0.336 0.75,-0.75 0,-0.414 -0.336,-0.75 -0.75,-0.75 m 8,0 h -4 c -0.414,0 -0.75,0.336 -0.75,0.75 0,0.414 0.336,0.75 0.75,0.75 h 4 c 0.414,0 0.75,-0.336 0.75,-0.75 0,-0.414 -0.336,-0.75 -0.75,-0.75 m 8,0 h -4 c -0.414,0 -0.75,0.336 -0.75,0.75 0,0.414 0.336,0.75 0.75,0.75 h 4 c 0.414,0 0.75,-0.336 0.75,-0.75 0,-0.414 -0.336,-0.75 -0.75,-0.75 m 8,0 h -4 c -0.414,0 -0.75,0.336 -0.75,0.75 0,0.414 0.336,0.75 0.75,0.75 h 4 c 0.414,0 0.75,-0.336 0.75,-0.75 0,-0.414 -0.336,-0.75 -0.75,-0.75 m 8,0 h -4 c -0.414,0 -0.75,0.336 -0.75,0.75 0,0.414 0.336,0.75 0.75,0.75 h 4 c 0.414,0 0.75,-0.336 0.75,-0.75 0,-0.414 -0.336,-0.75 -0.75,-0.75 m 8,0 h -4 c -0.414,0 -0.75,0.336 -0.75,0.75 0,0.414 0.336,0.75 0.75,0.75 h 4 c 0.414,0 0.75,-0.336 0.75,-0.75 0,-0.414 -0.336,-0.75 -0.75,-0.75 m 8,0 h -4 c -0.414,0 -0.75,0.336 -0.75,0.75 0,0.414 0.336,0.75 0.75,0.75 h 4 c 0.414,0 0.75,-0.336 0.75,-0.75 0,-0.414 -0.336,-0.75 -0.75,-0.75 m 8,0 h -4 c -0.414,0 -0.75,0.336 -0.75,0.75 0,0.414 0.336,0.75 0.75,0.75 h 4 c 0.414,0 0.75,-0.336 0.75,-0.75 0,-0.414 -0.336,-0.75 -0.75,-0.75 m 8,0 h -4 c -0.414,0 -0.75,0.336 -0.75,0.75 0,0.414 0.336,0.75 0.75,0.75 h 4 c 0.414,0 0.75,-0.336 0.75,-0.75 0,-0.414 -0.336,-0.75 -0.75,-0.75 m 8,0 h -4 c -0.414,0 -0.75,0.336 -0.75,0.75 0,0.414 0.336,0.75 0.75,0.75 h 4 c 0.414,0 0.75,-0.336 0.75,-0.75 0,-0.414 -0.336,-0.75 -0.75,-0.75 m 8,0 h -4 c -0.414,0 -0.75,0.336 -0.75,0.75 0,0.414 0.336,0.75 0.75,0.75 h 4 c 0.414,0 0.75,-0.336 0.75,-0.75 0,-0.414 -0.336,-0.75 -0.75,-0.75 m 8,0 h -4 c -0.414,0 -0.75,0.336 -0.75,0.75 0,0.414 0.336,0.75 0.75,0.75 h 4 c 0.414,0 0.75,-0.336 0.75,-0.75 0,-0.414 -0.336,-0.75 -0.75,-0.75 m 8,0 h -4 c -0.414,0 -0.75,0.336 -0.75,0.75 0,0.414 0.336,0.75 0.75,0.75 h 4 c 0.414,0 0.75,-0.336 0.75,-0.75 0,-0.414 -0.336,-0.75 -0.75,-0.75 m 8,0 h -4 c -0.414,0 -0.75,0.336 -0.75,0.75 0,0.414 0.336,0.75 0.75,0.75 h 4 c 0.414,0 0.75,-0.336 0.75,-0.75 0,-0.414 -0.336,-0.75 -0.75,-0.75 m 8,0 h -4 c -0.414,0 -0.75,0.336 -0.75,0.75 0,0.414 0.336,0.75 0.75,0.75 h 4 c 0.414,0 0.75,-0.336 0.75,-0.75 0,-0.414 -0.336,-0.75 -0.75,-0.75 m 8,0 h -4 c -0.414,0 -0.75,0.336 -0.75,0.75 0,0.414 0.336,0.75 0.75,0.75 h 4 c 0.414,0 0.75,-0.336 0.75,-0.75 0,-0.414 -0.336,-0.75 -0.75,-0.75 m 8,0 h -4 c -0.414,0 -0.75,0.336 -0.75,0.75 0,0.414 0.336,0.75 0.75,0.75 h 4 c 0.414,0 0.75,-0.336 0.75,-0.75 0,-0.414 -0.336,-0.75 -0.75,-0.75 m 8,0 h -4 c -0.414,0 -0.75,0.336 -0.75,0.75 0,0.414 0.336,0.75 0.75,0.75 h 4 c 0.414,0 0.75,-0.336 0.75,-0.75 0,-0.414 -0.336,-0.75 -0.75,-0.75 m 8,0 h -4 c -0.414,0 -0.75,0.336 -0.75,0.75 0,0.414 0.336,0.75 0.75,0.75 h 4 c 0.414,0 0.75,-0.336 0.75,-0.75 0,-0.414 -0.336,-0.75 -0.75,-0.75 m 8,0 h -4 c -0.414,0 -0.75,0.336 -0.75,0.75 0,0.414 0.336,0.75 0.75,0.75 h 4 c 0.414,0 0.75,-0.336 0.75,-0.75 0,-0.414 -0.336,-0.75 -0.75,-0.75"
             style="fill:#3f9c35;fill-opacity:1;fill-rule:nonzero;stroke:none"
             id="path38"
             inkscape:connector-curvature="0" /></g><path
           d="M 8.4,52.93 H 168.335 V 10.385 H 8.4 Z"
           style="fill:#3f9c35;fill-opacity:1;fill-rule:nonzero;stroke:none"
           id="path40"
           inkscape:connector-curvature="0" /><path
           d="M 9.4,11.385 H 167.335 V 51.93 H 9.4 Z m 159.935,-2 H 7.4 V 53.93 h 161.935 z"
           style="fill:#3f9c35;fill-opacity:1;fill-rule:nonzero;stroke:none"
           id="path42"
           inkscape:connector-curvature="0" /><g
           id="g44"
           transform="translate(49.4495,34.4845)"><path
             d="m 0,0 c -0.4,0.768 -1.041,1.216 -2.049,1.216 -1.68,0 -2.641,-1.472 -2.641,-3.553 0,-2.017 0.977,-3.554 2.657,-3.554 1.009,0 1.601,0.433 2.193,1.425 l 1.889,-1.121 c -0.769,-1.584 -2.113,-2.528 -4.146,-2.528 -2.929,0 -4.898,2.24 -4.898,5.778 0,3.409 2.049,5.778 4.978,5.778 2.113,0 3.393,-1.024 4.098,-2.481 z"
             style="fill:#f0f0f0;fill-opacity:1;fill-rule:nonzero;stroke:none"
             id="path46"
             inkscape:connector-curvature="0" /></g><g
           id="g48"
           transform="translate(57.658,35.7003)"><path
             d="m 0,0 c -1.809,0 -2.561,-1.552 -2.561,-3.553 0,-2.001 0.752,-3.553 2.561,-3.553 1.809,0 2.561,1.552 2.561,3.553 C 2.561,-1.552 1.809,0 0,0 m 0,-9.331 c -3.057,0 -4.866,2.369 -4.866,5.778 0,3.409 1.809,5.779 4.866,5.779 3.057,0 4.866,-2.37 4.866,-5.779 0,-3.409 -1.809,-5.778 -4.866,-5.778"
             style="fill:#f0f0f0;fill-opacity:1;fill-rule:nonzero;stroke:none"
             id="path50"
             inkscape:connector-curvature="0" /></g><g
           id="g52"
           transform="translate(71.8831,26.5451)"><path
             d="m 0,0 -4.114,6.114 c -0.272,0.416 -0.64,0.977 -0.784,1.265 0,-0.416 0.032,-1.824 0.032,-2.449 V 0 h -2.209 v 11.204 h 2.145 l 3.97,-5.922 c 0.272,-0.416 0.64,-0.976 0.784,-1.264 0,0.416 -0.032,1.825 -0.032,2.449 v 4.737 H 2 L 2,0 Z"
             style="fill:#f0f0f0;fill-opacity:1;fill-rule:nonzero;stroke:none"
             id="path54"
             inkscape:connector-curvature="0" /></g><g
           id="g56"
           transform="translate(81.4984,35.5412)"><path
             d="M 0,0 V -8.996 H -2.241 V 0 H -5.458 V 2.208 H 3.217 L 3.217,0 Z"
             style="fill:#f0f0f0;fill-opacity:1;fill-rule:nonzero;stroke:none"
             id="path58"
             inkscape:connector-curvature="0" /></g><g
           id="g60"
           transform="translate(90.4432,33.2033)"><path
             d="M 0,0 C -0.225,0.657 -0.448,1.329 -0.561,1.745 -0.673,1.329 -0.897,0.657 -1.121,0 l -0.72,-2.032 H 0.72 Z m 2.368,-6.658 -0.88,2.497 H -2.61 l -0.88,-2.497 h -2.401 l 4.29,11.204 H 0.576 L 4.834,-6.658 Z"
             style="fill:#f0f0f0;fill-opacity:1;fill-rule:nonzero;stroke:none"
             id="path62"
             inkscape:connector-curvature="0" /></g><path
           d="m 97.513,37.749 h 2.241 V 26.545 h -2.241 z"
           style="fill:#f0f0f0;fill-opacity:1;fill-rule:nonzero;stroke:none"
           id="path64"
           inkscape:connector-curvature="0" /><g
           id="g66"
           transform="translate(109.868,26.5451)"><path
             d="m 0,0 -4.114,6.114 c -0.272,0.416 -0.64,0.977 -0.784,1.265 0,-0.416 0.032,-1.824 0.032,-2.449 V 0 h -2.209 v 11.204 h 2.144 l 3.97,-5.922 c 0.273,-0.416 0.641,-0.976 0.784,-1.264 0,0.416 -0.032,1.825 -0.032,2.449 v 4.737 H 2 L 2,0 Z"
             style="fill:#f0f0f0;fill-opacity:1;fill-rule:nonzero;stroke:none"
             id="path68"
             inkscape:connector-curvature="0" /></g><g
           id="g70"
           transform="translate(114.7449,26.5451)"><path
             d="M 0,0 V 11.204 H 7.779 V 9.012 H 2.241 V 7.075 H 5.458 V 4.898 H 2.241 V 2.193 H 8.02 V 0 Z"
             style="fill:#f0f0f0;fill-opacity:1;fill-rule:nonzero;stroke:none"
             id="path72"
             inkscape:connector-curvature="0" /></g><g
           id="g74"
           transform="translate(130.3153,35.5724)"><path
             d="M 0,0 H -2.93 V -2.881 H 0 c 1.04,0 1.601,0.481 1.601,1.457 C 1.601,-0.416 0.992,0 0,0 m 1.328,-9.027 -2.001,4.033 H -2.93 V -9.027 H -5.171 V 2.177 h 5.219 c 2.112,0 3.857,-1.168 3.857,-3.553 0,-1.681 -0.72,-2.737 -2.144,-3.298 l 2.144,-4.353 z"
             style="fill:#f0f0f0;fill-opacity:1;fill-rule:nonzero;stroke:none"
             id="path76"
             inkscape:connector-curvature="0" /></g><path
           d="M 19.576,97.268 H 157.158 V 67.047 H 19.576 Z"
           style="fill:#0088ce;fill-opacity:1;fill-rule:nonzero;stroke:none"
           id="path78"
           inkscape:connector-curvature="0" /><path
           d="M 20.309,67.779 H 156.426 V 96.535 H 20.309 Z M 157.89,66.315 H 18.844 V 98.001 H 157.89 Z"
           style="fill:#0088ce;fill-opacity:1;fill-rule:nonzero;stroke:none"
           id="path80"
           inkscape:connector-curvature="0" /><g
           id="g82"
           transform="translate(44.5433,78.0929)"><path
             d="m 0,0 -3.908,6.149 c -0.238,0.365 -0.574,0.953 -0.729,1.205 0,-0.364 0.014,-1.723 0.014,-2.269 V 0 h -1.428 v 9.806 h 1.498 l 3.726,-5.982 c 0.252,-0.406 0.673,-1.135 0.813,-1.386 0,0.364 -0.014,1.764 -0.014,2.311 V 9.806 H 1.4 L 1.4,0 Z"
             style="fill:#ffffff;fill-opacity:1;fill-rule:nonzero;stroke:none"
             id="path84"
             inkscape:connector-curvature="0" /></g><g
           id="g86"
           transform="translate(51.1488,84.2287)"><path
             d="m 0,0 c -1.092,0 -1.765,-0.967 -1.765,-2.424 0,-1.61 0.743,-2.493 1.835,-2.493 1.093,0 1.807,1.106 1.807,2.451 C 1.877,-0.967 1.163,0 0,0 m 0.014,-6.29 c -1.849,0 -3.236,1.527 -3.236,3.824 0,2.409 1.429,3.838 3.278,3.838 1.877,0 3.278,-1.499 3.278,-3.796 0,-2.437 -1.429,-3.866 -3.32,-3.866"
             style="fill:#ffffff;fill-opacity:1;fill-rule:nonzero;stroke:none"
             id="path88"
             inkscape:connector-curvature="0" /></g><g
           id="g90"
           transform="translate(60.6976,83.3038)"><path
             d="m 0,0 c -0.322,0.435 -0.995,0.967 -1.723,0.967 -1.036,0 -1.597,-0.785 -1.597,-2.34 0,-1.849 0.589,-2.661 1.653,-2.661 0.687,0 1.289,0.462 1.667,0.938 z m -0.014,-5.211 v 0.7 c -0.532,-0.49 -1.149,-0.854 -1.919,-0.854 -1.583,0 -2.83,1.148 -2.83,3.95 0,2.521 1.373,3.712 2.9,3.712 0.742,0 1.443,-0.392 1.849,-0.84 V 4.258 L 1.415,5.001 V -5.211 Z"
             style="fill:#ffffff;fill-opacity:1;fill-rule:nonzero;stroke:none"
             id="path92"
             inkscape:connector-curvature="0" /></g><g
           id="g94"
           transform="translate(67.0106,84.298)"><path
             d="M 0,0 C -0.966,0 -1.555,-0.672 -1.681,-1.849 H 1.737 C 1.667,-0.84 1.191,0 0,0 m 3.152,-3.039 h -4.861 c 0.154,-1.415 0.953,-2.018 1.849,-2.018 0.617,0 1.107,0.225 1.597,0.589 L 2.592,-5.393 C 1.947,-6.009 1.177,-6.359 0.056,-6.359 c -1.723,0 -3.18,1.386 -3.18,3.824 0,2.493 1.317,3.838 3.222,3.838 2.088,0 3.096,-1.695 3.096,-3.684 0,-0.266 -0.028,-0.505 -0.042,-0.658"
             style="fill:#ffffff;fill-opacity:1;fill-rule:nonzero;stroke:none"
             id="path96"
             inkscape:connector-curvature="0" /></g><g
           id="g98"
           transform="translate(72.3587,77.9386)"><path
             d="m 0,0 c -0.602,0 -1.106,0.505 -1.106,1.106 0,0.603 0.504,1.122 1.106,1.122 0.603,0 1.107,-0.519 1.107,-1.122 C 1.107,0.505 0.603,0 0,0"
             style="fill:#ffffff;fill-opacity:1;fill-rule:nonzero;stroke:none"
             id="path100"
             inkscape:connector-curvature="0" /></g><g
           id="g102"
           transform="translate(75.9989,86.3996)"><path
             d="m 0,0 c -0.518,0 -0.938,0.42 -0.938,0.925 0,0.517 0.42,0.938 0.938,0.938 0.504,0 0.925,-0.421 0.925,-0.938 C 0.925,0.42 0.504,0 0,0 m -1.779,-11.01 -0.49,1.092 c 1.345,0.379 1.541,0.659 1.541,1.92 v 7.045 h 1.443 v -7.018 c 0,-1.848 -0.463,-2.619 -2.494,-3.039"
             style="fill:#ffffff;fill-opacity:1;fill-rule:nonzero;stroke:none"
             id="path104"
             inkscape:connector-curvature="0" /></g><g
           id="g106"
           transform="translate(81.2918,77.9386)"><path
             d="m 0,0 c -0.995,0 -2.073,0.393 -2.815,0.938 l 0.658,1.093 c 0.686,-0.476 1.457,-0.728 2.143,-0.728 0.91,0 1.345,0.294 1.345,0.812 0,0.561 -0.644,0.826 -1.709,1.233 -1.583,0.617 -2.157,1.149 -2.157,2.311 0,1.317 1.036,2.003 2.507,2.003 0.924,0 1.835,-0.336 2.493,-0.812 L 1.835,5.743 C 1.233,6.163 0.63,6.374 -0.07,6.374 c -0.701,0 -1.009,-0.28 -1.009,-0.673 0,-0.364 0.253,-0.63 1.359,-1.064 C 1.919,4.007 2.76,3.559 2.76,2.172 2.76,0.547 1.443,0 0,0"
             style="fill:#ffffff;fill-opacity:1;fill-rule:nonzero;stroke:none"
             id="path108"
             inkscape:connector-curvature="0" /></g><g
           id="g110"
           transform="translate(93.6688,83.9201)"><path
             d="m 0,0 c -0.309,0.168 -0.631,0.267 -1.106,0.267 -0.912,0 -1.444,-0.645 -1.444,-1.892 v -4.202 h -1.442 v 7.353 h 1.442 v -0.7 c 0.337,0.49 0.953,0.855 1.682,0.855 0.588,0 0.952,-0.112 1.246,-0.308 z"
             style="fill:#ffffff;fill-opacity:1;fill-rule:nonzero;stroke:none"
             id="path112"
             inkscape:connector-curvature="0" /></g><g
           id="g114"
           transform="translate(99.9412,78.0929)"><path
             d="m 0,0 v 0.7 c -0.364,-0.532 -1.093,-0.854 -1.85,-0.854 -1.709,0 -2.619,1.121 -2.619,3.292 v 4.216 h 1.443 V 3.193 c 0,-1.484 0.56,-2.016 1.513,-2.016 C -0.547,1.177 0,1.863 0,3.054 v 4.3 H 1.442 V 0 Z"
             style="fill:#ffffff;fill-opacity:1;fill-rule:nonzero;stroke:none"
             id="path116"
             inkscape:connector-curvature="0" /></g><g
           id="g118"
           transform="translate(107.9774,78.0929)"><path
             d="m 0,0 v 4.16 c 0,1.486 -0.561,2.018 -1.514,2.018 -0.965,0 -1.512,-0.687 -1.512,-1.877 V 0 h -1.443 v 7.354 h 1.443 V 6.653 c 0.364,0.533 1.092,0.855 1.849,0.855 1.709,0 2.619,-1.12 2.619,-3.292 L 1.442,0 Z"
             style="fill:#ffffff;fill-opacity:1;fill-rule:nonzero;stroke:none"
             id="path120"
             inkscape:connector-curvature="0" /></g><g
           id="g122"
           transform="translate(114.9364,78.2746)"><path
             d="m 0,0 c -0.351,-0.195 -0.841,-0.336 -1.415,-0.336 -1.023,0 -1.653,0.631 -1.653,1.947 v 4.244 h -1.05 v 1.317 h 1.05 v 2.101 l 1.415,0.757 V 7.172 H 0.168 V 5.855 H -1.653 V 1.863 c 0,-0.686 0.224,-0.882 0.757,-0.882 0.377,0 0.797,0.14 1.064,0.294 z"
             style="fill:#ffffff;fill-opacity:1;fill-rule:nonzero;stroke:none"
             id="path124"
             inkscape:connector-curvature="0" /></g><path
           d="m 117.133,85.446 h 1.442 v -7.354 h -1.442 z m 0.727,0.954 c -0.517,0 -0.938,0.419 -0.938,0.924 0,0.518 0.421,0.939 0.938,0.939 0.505,0 0.925,-0.421 0.925,-0.939 0,-0.505 -0.42,-0.924 -0.925,-0.924"
           style="fill:#ffffff;fill-opacity:1;fill-rule:nonzero;stroke:none"
           id="path126"
           inkscape:connector-curvature="0" /><g
           id="g128"
           transform="translate(129.3172,78.0929)"><path
             d="M 0,0 V 4.16 C 0,5.646 -0.463,6.178 -1.415,6.178 -2.382,6.178 -2.83,5.491 -2.83,4.301 V 0 h -1.442 v 4.16 c 0,1.486 -0.463,2.018 -1.415,2.018 -0.967,0 -1.416,-0.687 -1.416,-1.877 V 0 h -1.442 v 7.354 h 1.442 V 6.653 c 0.365,0.533 0.996,0.855 1.751,0.855 0.996,0 1.625,-0.378 2.018,-1.078 0.532,0.658 1.106,1.078 2.255,1.078 1.709,0 2.521,-1.12 2.521,-3.292 L 1.442,0 Z"
             style="fill:#ffffff;fill-opacity:1;fill-rule:nonzero;stroke:none"
             id="path130"
             inkscape:connector-curvature="0" /></g><g
           id="g132"
           transform="translate(135.5994,84.298)"><path
             d="M 0,0 C -0.967,0 -1.555,-0.672 -1.681,-1.849 H 1.737 C 1.667,-0.84 1.19,0 0,0 m 3.151,-3.039 h -4.86 c 0.154,-1.415 0.952,-2.018 1.849,-2.018 0.616,0 1.107,0.225 1.597,0.589 L 2.592,-5.393 C 1.947,-6.009 1.177,-6.359 0.056,-6.359 c -1.723,0 -3.18,1.386 -3.18,3.824 0,2.493 1.317,3.838 3.222,3.838 2.088,0 3.095,-1.695 3.095,-3.684 0,-0.266 -0.027,-0.505 -0.042,-0.658"
             style="fill:#ffffff;fill-opacity:1;fill-rule:nonzero;stroke:none"
             id="path134"
             inkscape:connector-curvature="0" /></g><path
           d="M 19.576,138.987 H 157.158 V 108.766 H 19.576 Z"
           style="fill:#0088ce;fill-opacity:1;fill-rule:nonzero;stroke:none"
           id="path136"
           inkscape:connector-curvature="0" /><path
           d="m 20.309,109.498 h 136.117 v 28.756 H 20.309 Z M 157.89,108.033 H 18.844 v 31.686 H 157.89 Z"
           style="fill:#0088ce;fill-opacity:1;fill-rule:nonzero;stroke:none"
           id="path138"
           inkscape:connector-curvature="0" /><g
           id="g140"
           transform="translate(39.8758,119.8126)"><path
             d="m 0,0 -3.908,6.149 c -0.238,0.365 -0.574,0.953 -0.729,1.205 0,-0.364 0.014,-1.723 0.014,-2.269 V 0 h -1.428 v 9.806 h 1.498 l 3.726,-5.982 c 0.252,-0.406 0.673,-1.135 0.813,-1.386 0,0.364 -0.014,1.764 -0.014,2.311 V 9.806 H 1.4 L 1.4,0 Z"
             style="fill:#ffffff;fill-opacity:1;fill-rule:nonzero;stroke:none"
             id="path142"
             inkscape:connector-curvature="0" /></g><g
           id="g144"
           transform="translate(46.4818,125.9484)"><path
             d="m 0,0 c -1.092,0 -1.765,-0.967 -1.765,-2.424 0,-1.61 0.743,-2.493 1.835,-2.493 1.093,0 1.807,1.106 1.807,2.451 C 1.877,-0.967 1.163,0 0,0 m 0.014,-6.29 c -1.849,0 -3.236,1.527 -3.236,3.824 0,2.409 1.429,3.838 3.278,3.838 1.877,0 3.278,-1.499 3.278,-3.796 0,-2.437 -1.429,-3.866 -3.32,-3.866"
             style="fill:#ffffff;fill-opacity:1;fill-rule:nonzero;stroke:none"
             id="path146"
             inkscape:connector-curvature="0" /></g><g
           id="g148"
           transform="translate(56.0306,125.0236)"><path
             d="m 0,0 c -0.322,0.435 -0.995,0.967 -1.723,0.967 -1.036,0 -1.597,-0.785 -1.597,-2.34 0,-1.849 0.589,-2.661 1.653,-2.661 0.687,0 1.289,0.462 1.667,0.938 z m -0.014,-5.211 v 0.7 c -0.532,-0.49 -1.149,-0.854 -1.919,-0.854 -1.583,0 -2.83,1.148 -2.83,3.95 0,2.521 1.373,3.712 2.9,3.712 0.742,0 1.443,-0.392 1.849,-0.84 V 4.258 L 1.415,5.001 V -5.211 Z"
             style="fill:#ffffff;fill-opacity:1;fill-rule:nonzero;stroke:none"
             id="path150"
             inkscape:connector-curvature="0" /></g><g
           id="g152"
           transform="translate(62.3436,126.0177)"><path
             d="M 0,0 C -0.966,0 -1.555,-0.672 -1.681,-1.849 H 1.737 C 1.667,-0.84 1.191,0 0,0 m 3.152,-3.039 h -4.861 c 0.154,-1.415 0.953,-2.018 1.849,-2.018 0.617,0 1.107,0.225 1.597,0.589 L 2.592,-5.393 C 1.947,-6.009 1.177,-6.359 0.056,-6.359 c -1.723,0 -3.18,1.386 -3.18,3.824 0,2.493 1.317,3.838 3.222,3.838 2.088,0 3.096,-1.695 3.096,-3.684 0,-0.266 -0.028,-0.505 -0.042,-0.658"
             style="fill:#ffffff;fill-opacity:1;fill-rule:nonzero;stroke:none"
             id="path154"
             inkscape:connector-curvature="0" /></g><g
           id="g156"
           transform="translate(67.6917,119.6583)"><path
             d="m 0,0 c -0.602,0 -1.106,0.505 -1.106,1.106 0,0.603 0.504,1.122 1.106,1.122 0.603,0 1.107,-0.519 1.107,-1.122 C 1.107,0.505 0.603,0 0,0"
             style="fill:#ffffff;fill-opacity:1;fill-rule:nonzero;stroke:none"
             id="path158"
             inkscape:connector-curvature="0" /></g><g
           id="g160"
           transform="translate(71.3319,128.1193)"><path
             d="m 0,0 c -0.518,0 -0.938,0.42 -0.938,0.925 0,0.517 0.42,0.938 0.938,0.938 0.504,0 0.925,-0.421 0.925,-0.938 C 0.925,0.42 0.504,0 0,0 m -1.779,-11.01 -0.49,1.092 c 1.345,0.379 1.541,0.659 1.541,1.92 v 7.045 h 1.443 v -7.018 c 0,-1.848 -0.463,-2.619 -2.494,-3.039"
             style="fill:#ffffff;fill-opacity:1;fill-rule:nonzero;stroke:none"
             id="path162"
             inkscape:connector-curvature="0" /></g><g
           id="g164"
           transform="translate(76.6248,119.6583)"><path
             d="m 0,0 c -0.995,0 -2.073,0.393 -2.815,0.938 l 0.658,1.093 c 0.686,-0.476 1.457,-0.728 2.143,-0.728 0.91,0 1.345,0.294 1.345,0.812 0,0.561 -0.644,0.826 -1.709,1.233 -1.583,0.617 -2.157,1.149 -2.157,2.311 0,1.317 1.036,2.003 2.507,2.003 0.924,0 1.835,-0.336 2.493,-0.812 L 1.835,5.743 C 1.233,6.163 0.63,6.374 -0.07,6.374 c -0.701,0 -1.009,-0.28 -1.009,-0.673 0,-0.364 0.253,-0.63 1.359,-1.064 C 1.919,4.007 2.76,3.559 2.76,2.172 2.76,0.547 1.443,0 0,0"
             style="fill:#ffffff;fill-opacity:1;fill-rule:nonzero;stroke:none"
             id="path166"
             inkscape:connector-curvature="0" /></g><g
           id="g168"
           transform="translate(88.0907,125.9904)"><path
             d="m 0,0 c -0.686,0 -1.289,-0.463 -1.667,-0.938 v -3.096 c 0.322,-0.435 0.995,-0.967 1.723,-0.967 1.037,0 1.597,0.784 1.597,2.339 C 1.653,-0.812 1.065,0 0,0 m 0.196,-6.332 c -0.742,0 -1.443,0.393 -1.849,0.841 V -8.139 L -3.082,-8.881 V 1.176 h 1.429 v -0.7 c 0.533,0.49 1.149,0.854 1.92,0.854 1.583,0 2.829,-1.148 2.829,-3.95 0,-2.522 -1.372,-3.712 -2.9,-3.712"
             style="fill:#ffffff;fill-opacity:1;fill-rule:nonzero;stroke:none"
             id="path170"
             inkscape:connector-curvature="0" /></g><g
           id="g172"
           transform="translate(97.0926,122.9503)"><path
             d="m 0,0 c -0.392,0.196 -0.896,0.322 -1.681,0.322 -0.924,0 -1.512,-0.42 -1.512,-1.093 0,-0.728 0.462,-1.218 1.415,-1.218 0.77,0 1.442,0.476 1.778,0.938 z m 0,-3.138 v 0.729 c -0.504,-0.504 -1.219,-0.883 -2.017,-0.883 -1.19,0 -2.549,0.673 -2.549,2.48 0,1.638 1.26,2.381 2.927,2.381 0.687,0 1.233,-0.098 1.639,-0.28 v 0.546 c 0,0.799 -0.49,1.247 -1.387,1.247 -0.756,0 -1.344,-0.141 -1.919,-0.463 l -0.56,1.093 c 0.701,0.434 1.485,0.658 2.521,0.658 1.64,0 2.76,-0.798 2.76,-2.465 v -5.043 z"
             style="fill:#ffffff;fill-opacity:1;fill-rule:nonzero;stroke:none"
             id="path174"
             inkscape:connector-curvature="0" /></g><g
           id="g176"
           transform="translate(105.1991,125.0519)"><path
             d="m 0,0 c -0.603,0.616 -1.135,0.896 -1.793,0.896 -1.051,0 -1.723,-0.938 -1.723,-2.437 0,-1.443 0.617,-2.48 1.765,-2.48 0.687,0 1.093,0.308 1.667,0.911 L 0.84,-4.021 c -0.574,-0.728 -1.303,-1.373 -2.633,-1.373 -1.793,0 -3.18,1.513 -3.18,3.811 0,2.437 1.429,3.852 3.222,3.852 1.078,0 1.919,-0.434 2.605,-1.247 z"
             style="fill:#ffffff;fill-opacity:1;fill-rule:nonzero;stroke:none"
             id="path178"
             inkscape:connector-curvature="0" /></g><g
           id="g180"
           transform="translate(112.0721,119.8126)"><path
             d="M 0,0 -1.625,3.656 -2.745,2.171 V 0 h -1.443 v 9.455 l 1.443,0.757 V 5.575 c 0,-0.448 -0.015,-1.205 -0.015,-1.569 0.197,0.295 0.575,0.854 0.813,1.205 L -0.42,7.354 H 1.219 L -0.645,4.889 1.569,0 Z"
             style="fill:#ffffff;fill-opacity:1;fill-rule:nonzero;stroke:none"
             id="path182"
             inkscape:connector-curvature="0" /></g><g
           id="g184"
           transform="translate(119.1844,122.9503)"><path
             d="m 0,0 c -0.392,0.196 -0.896,0.322 -1.681,0.322 -0.924,0 -1.512,-0.42 -1.512,-1.093 0,-0.728 0.462,-1.218 1.415,-1.218 0.77,0 1.442,0.476 1.778,0.938 z m 0,-3.138 v 0.729 c -0.504,-0.504 -1.219,-0.883 -2.017,-0.883 -1.19,0 -2.549,0.673 -2.549,2.48 0,1.638 1.26,2.381 2.927,2.381 0.687,0 1.233,-0.098 1.639,-0.28 v 0.546 c 0,0.799 -0.49,1.247 -1.387,1.247 -0.756,0 -1.344,-0.141 -1.919,-0.463 l -0.56,1.093 c 0.701,0.434 1.485,0.658 2.521,0.658 1.64,0 2.76,-0.798 2.76,-2.465 v -5.043 z"
             style="fill:#ffffff;fill-opacity:1;fill-rule:nonzero;stroke:none"
             id="path186"
             inkscape:connector-curvature="0" /></g><g
           id="g188"
           transform="translate(127.1082,125.0236)"><path
             d="m 0,0 c -0.322,0.435 -0.994,0.967 -1.723,0.967 -1.036,0 -1.596,-0.785 -1.596,-2.34 0,-1.849 0.588,-2.661 1.652,-2.661 0.687,0 1.289,0.462 1.667,0.938 z m -2.059,-7.914 -0.49,1.092 c 2.073,0.098 2.522,0.659 2.522,2.185 v 0.126 c -0.533,-0.49 -1.135,-0.854 -1.906,-0.854 -1.569,0 -2.83,1.148 -2.83,3.95 0,2.521 1.387,3.712 2.901,3.712 0.742,0 1.442,-0.392 1.835,-0.84 v 0.686 h 1.442 v -6.654 c 0,-2.241 -0.812,-3.319 -3.474,-3.403"
             style="fill:#ffffff;fill-opacity:1;fill-rule:nonzero;stroke:none"
             id="path190"
             inkscape:connector-curvature="0" /></g><g
           id="g192"
           transform="translate(133.4217,126.0177)"><path
             d="M 0,0 C -0.967,0 -1.555,-0.672 -1.681,-1.849 H 1.737 C 1.667,-0.84 1.19,0 0,0 m 3.151,-3.039 h -4.86 c 0.154,-1.415 0.952,-2.018 1.849,-2.018 0.616,0 1.107,0.225 1.597,0.589 L 2.592,-5.393 C 1.947,-6.009 1.177,-6.359 0.056,-6.359 c -1.723,0 -3.18,1.386 -3.18,3.824 0,2.493 1.317,3.838 3.222,3.838 2.088,0 3.095,-1.695 3.095,-3.684 0,-0.266 -0.027,-0.505 -0.042,-0.658"
             style="fill:#ffffff;fill-opacity:1;fill-rule:nonzero;stroke:none"
             id="path194"
             inkscape:connector-curvature="0" /></g><g
           id="g196"
           transform="translate(140.6453,119.6583)"><path
             d="m 0,0 c -0.995,0 -2.073,0.393 -2.815,0.938 l 0.658,1.093 c 0.686,-0.476 1.457,-0.728 2.142,-0.728 0.911,0 1.345,0.294 1.345,0.812 0,0.561 -0.643,0.826 -1.708,1.233 -1.583,0.617 -2.157,1.149 -2.157,2.311 0,1.317 1.036,2.003 2.507,2.003 0.924,0 1.835,-0.336 2.493,-0.812 L 1.835,5.743 C 1.232,6.163 0.63,6.374 -0.07,6.374 c -0.701,0 -1.009,-0.28 -1.009,-0.673 0,-0.364 0.253,-0.63 1.359,-1.064 C 1.919,4.007 2.76,3.559 2.76,2.172 2.76,0.547 1.442,0 0,0"
             style="fill:#ffffff;fill-opacity:1;fill-rule:nonzero;stroke:none"
             id="path198"
             inkscape:connector-curvature="0" /></g><path
           d="M 19.576,180.706 H 157.158 V 150.485 H 19.576 Z"
           style="fill:#0088ce;fill-opacity:1;fill-rule:nonzero;stroke:none"
           id="path200"
           inkscape:connector-curvature="0" /><path
           d="m 20.309,151.217 h 136.117 v 28.756 H 20.309 Z M 157.89,149.753 H 18.844 v 31.686 H 157.89 Z"
           style="fill:#0088ce;fill-opacity:1;fill-rule:nonzero;stroke:none"
           id="path202"
           inkscape:connector-curvature="0" /><g
           id="g204"
           transform="translate(40.0579,167.3331)"><path
             d="m 0,0 c -0.238,0.7 -0.63,1.835 -0.742,2.255 -0.112,-0.42 -0.463,-1.541 -0.715,-2.27 l -0.784,-2.241 h 3.026 z m 2.059,-5.897 -0.826,2.325 h -3.922 l -0.813,-2.325 h -1.527 l 3.53,9.805 h 1.555 l 3.572,-9.805 z"
             style="fill:#ffffff;fill-opacity:1;fill-rule:nonzero;stroke:none"
             id="path206"
             inkscape:connector-curvature="0" /></g><g
           id="g208"
           transform="translate(48.4852,167.6134)"><path
             d="m 0,0 c -0.687,0 -1.289,-0.463 -1.667,-0.938 v -3.096 c 0.322,-0.435 0.994,-0.967 1.723,-0.967 1.036,0 1.597,0.784 1.597,2.339 C 1.653,-0.812 1.064,0 0,0 m 0.196,-6.332 c -0.742,0 -1.443,0.393 -1.849,0.841 V -8.139 L -3.082,-8.881 V 1.176 h 1.429 v -0.7 c 0.532,0.49 1.149,0.854 1.919,0.854 1.583,0 2.829,-1.148 2.829,-3.95 0,-2.522 -1.372,-3.712 -2.899,-3.712"
             style="fill:#ffffff;fill-opacity:1;fill-rule:nonzero;stroke:none"
             id="path210"
             inkscape:connector-curvature="0" /></g><g
           id="g212"
           transform="translate(56.4647,167.6134)"><path
             d="m 0,0 c -0.686,0 -1.289,-0.463 -1.667,-0.938 v -3.096 c 0.322,-0.435 0.995,-0.967 1.723,-0.967 1.037,0 1.597,0.784 1.597,2.339 C 1.653,-0.812 1.065,0 0,0 m 0.196,-6.332 c -0.742,0 -1.443,0.393 -1.849,0.841 V -8.139 L -3.082,-8.881 V 1.176 h 1.429 v -0.7 c 0.533,0.49 1.149,0.854 1.92,0.854 1.582,0 2.829,-1.148 2.829,-3.95 0,-2.522 -1.373,-3.712 -2.9,-3.712"
             style="fill:#ffffff;fill-opacity:1;fill-rule:nonzero;stroke:none"
             id="path214"
             inkscape:connector-curvature="0" /></g><g
           id="g216"
           transform="translate(61.4334,161.4357)"><path
             d="m 0,0 v 9.455 l 1.442,0.757 V 0 Z"
             style="fill:#ffffff;fill-opacity:1;fill-rule:nonzero;stroke:none"
             id="path218"
             inkscape:connector-curvature="0" /></g><path
           d="m 65.143,168.789 h 1.442 v -7.354 h -1.442 z m 0.728,0.953 c -0.518,0 -0.938,0.42 -0.938,0.925 0,0.518 0.42,0.939 0.938,0.939 0.505,0 0.925,-0.421 0.925,-0.939 0,-0.505 -0.42,-0.925 -0.925,-0.925"
           style="fill:#ffffff;fill-opacity:1;fill-rule:nonzero;stroke:none"
           id="path220"
           inkscape:connector-curvature="0" /><g
           id="g222"
           transform="translate(73.4056,166.6749)"><path
             d="m 0,0 c -0.602,0.616 -1.135,0.896 -1.793,0.896 -1.05,0 -1.723,-0.938 -1.723,-2.437 0,-1.443 0.617,-2.48 1.765,-2.48 0.687,0 1.093,0.308 1.667,0.911 L 0.84,-4.021 c -0.574,-0.728 -1.302,-1.373 -2.633,-1.373 -1.793,0 -3.18,1.513 -3.18,3.811 0,2.437 1.429,3.852 3.222,3.852 1.079,0 1.919,-0.434 2.605,-1.247 z"
             style="fill:#ffffff;fill-opacity:1;fill-rule:nonzero;stroke:none"
             id="path224"
             inkscape:connector-curvature="0" /></g><g
           id="g226"
           transform="translate(80.0677,164.5734)"><path
             d="m 0,0 c -0.392,0.196 -0.896,0.322 -1.681,0.322 -0.924,0 -1.513,-0.42 -1.513,-1.093 0,-0.728 0.463,-1.218 1.415,-1.218 0.771,0 1.443,0.476 1.779,0.938 z m 0,-3.138 v 0.729 c -0.504,-0.504 -1.219,-0.883 -2.017,-0.883 -1.191,0 -2.549,0.673 -2.549,2.48 0,1.638 1.26,2.381 2.927,2.381 0.686,0 1.233,-0.098 1.639,-0.28 v 0.546 c 0,0.799 -0.49,1.247 -1.387,1.247 -0.756,0 -1.344,-0.141 -1.919,-0.463 l -0.56,1.093 c 0.7,0.434 1.485,0.658 2.521,0.658 1.639,0 2.76,-0.798 2.76,-2.465 v -5.043 z"
             style="fill:#ffffff;fill-opacity:1;fill-rule:nonzero;stroke:none"
             id="path228"
             inkscape:connector-curvature="0" /></g><g
           id="g230"
           transform="translate(87.0677,161.6173)"><path
             d="m 0,0 c -0.35,-0.195 -0.84,-0.336 -1.415,-0.336 -1.023,0 -1.653,0.631 -1.653,1.947 v 4.244 h -1.05 v 1.317 h 1.05 v 2.101 l 1.415,0.757 V 7.172 H 0.168 V 5.855 H -1.653 V 1.863 c 0,-0.686 0.224,-0.882 0.757,-0.882 0.377,0 0.798,0.14 1.064,0.294 z"
             style="fill:#ffffff;fill-opacity:1;fill-rule:nonzero;stroke:none"
             id="path232"
             inkscape:connector-curvature="0" /></g><path
           d="m 89.264,168.789 h 1.442 v -7.354 h -1.442 z m 0.727,0.953 c -0.518,0 -0.938,0.42 -0.938,0.925 0,0.518 0.42,0.939 0.938,0.939 0.505,0 0.925,-0.421 0.925,-0.939 0,-0.505 -0.42,-0.925 -0.925,-0.925"
           style="fill:#ffffff;fill-opacity:1;fill-rule:nonzero;stroke:none"
           id="path234"
           inkscape:connector-curvature="0" /><g
           id="g236"
           transform="translate(95.7742,167.5714)"><path
             d="m 0,0 c -1.092,0 -1.765,-0.967 -1.765,-2.424 0,-1.61 0.743,-2.493 1.835,-2.493 1.093,0 1.807,1.106 1.807,2.451 C 1.877,-0.967 1.163,0 0,0 m 0.015,-6.29 c -1.85,0 -3.237,1.527 -3.237,3.824 0,2.409 1.429,3.838 3.279,3.838 1.877,0 3.277,-1.499 3.277,-3.796 0,-2.437 -1.429,-3.866 -3.319,-3.866"
             style="fill:#ffffff;fill-opacity:1;fill-rule:nonzero;stroke:none"
             id="path238"
             inkscape:connector-curvature="0" /></g><g
           id="g240"
           transform="translate(105.3514,161.4357)"><path
             d="m 0,0 v 4.16 c 0,1.486 -0.561,2.018 -1.513,2.018 -0.966,0 -1.512,-0.687 -1.512,-1.877 V 0 h -1.444 v 7.354 h 1.444 V 6.653 c 0.364,0.533 1.092,0.855 1.848,0.855 1.709,0 2.619,-1.12 2.619,-3.292 L 1.442,0 Z"
             style="fill:#ffffff;fill-opacity:1;fill-rule:nonzero;stroke:none"
             id="path242"
             inkscape:connector-curvature="0" /></g><g
           id="g244"
           transform="translate(117.2655,166.6749)"><path
             d="m 0,0 c -0.603,0.616 -1.135,0.896 -1.793,0.896 -1.051,0 -1.723,-0.938 -1.723,-2.437 0,-1.443 0.617,-2.48 1.765,-2.48 0.687,0 1.093,0.308 1.667,0.911 L 0.84,-4.021 c -0.574,-0.728 -1.303,-1.373 -2.633,-1.373 -1.793,0 -3.18,1.513 -3.18,3.811 0,2.437 1.429,3.852 3.222,3.852 1.078,0 1.919,-0.434 2.605,-1.247 z"
             style="fill:#ffffff;fill-opacity:1;fill-rule:nonzero;stroke:none"
             id="path246"
             inkscape:connector-curvature="0" /></g><g
           id="g248"
           transform="translate(122.5828,167.5714)"><path
             d="m 0,0 c -1.092,0 -1.765,-0.967 -1.765,-2.424 0,-1.61 0.743,-2.493 1.835,-2.493 1.093,0 1.807,1.106 1.807,2.451 C 1.877,-0.967 1.163,0 0,0 m 0.015,-6.29 c -1.85,0 -3.237,1.527 -3.237,3.824 0,2.409 1.429,3.838 3.279,3.838 1.877,0 3.277,-1.499 3.277,-3.796 0,-2.437 -1.429,-3.866 -3.319,-3.866"
             style="fill:#ffffff;fill-opacity:1;fill-rule:nonzero;stroke:none"
             id="path250"
             inkscape:connector-curvature="0" /></g><g
           id="g252"
           transform="translate(132.1317,166.6466)"><path
             d="m 0,0 c -0.322,0.435 -0.995,0.967 -1.723,0.967 -1.037,0 -1.597,-0.785 -1.597,-2.34 0,-1.849 0.589,-2.661 1.653,-2.661 0.687,0 1.289,0.462 1.667,0.938 z m -0.014,-5.211 v 0.7 c -0.533,-0.49 -1.149,-0.854 -1.92,-0.854 -1.582,0 -2.829,1.148 -2.829,3.95 0,2.521 1.373,3.712 2.9,3.712 0.742,0 1.443,-0.392 1.849,-0.84 V 4.258 L 1.415,5.001 V -5.211 Z"
             style="fill:#ffffff;fill-opacity:1;fill-rule:nonzero;stroke:none"
             id="path254"
             inkscape:connector-curvature="0" /></g><g
           id="g256"
           transform="translate(138.4442,167.6408)"><path
             d="M 0,0 C -0.966,0 -1.555,-0.672 -1.681,-1.849 H 1.737 C 1.667,-0.84 1.191,0 0,0 m 3.152,-3.039 h -4.86 c 0.153,-1.415 0.952,-2.018 1.849,-2.018 0.616,0 1.106,0.225 1.596,0.589 L 2.592,-5.393 C 1.947,-6.009 1.177,-6.359 0.057,-6.359 c -1.723,0 -3.18,1.386 -3.18,3.824 0,2.493 1.316,3.838 3.222,3.838 2.087,0 3.095,-1.695 3.095,-3.684 0,-0.266 -0.028,-0.505 -0.042,-0.658"
             style="fill:#ffffff;fill-opacity:1;fill-rule:nonzero;stroke:none"
             id="path258"
             inkscape:connector-curvature="0" /></g></g></g></g></svg>